<?xml version="1.0" encoding="UTF-8"?>
<svg xmlns="http://www.w3.org/2000/svg" xmlns:xlink="http://www.w3.org/1999/xlink" width="72px" height="72px" viewBox="0 0 72 72" version="1.1">
<g id="surface1">
<path style=" stroke:none;fill-rule:nonzero;fill:rgb(96.078431%,81.176471%,36.862745%);fill-opacity:1;" d="M 36.59375 3.058594 C 31.613281 3.058594 27.730469 3.789062 25.011719 4.863281 C 23.65625 5.402344 22.613281 6.019531 21.808594 6.753906 C 21.410156 7.121094 21.058594 7.53125 20.808594 7.984375 C 17.894531 10.65625 15.753906 14.839844 14.359375 19.476562 C 13.03125 23.90625 12.414062 28.761719 12.75 33.195312 C 12.496094 36.398438 14.25 40.949219 16.257812 44.589844 L 16.269531 44.609375 L 16.273438 44.613281 C 21.042969 49.53125 28.007812 53.167969 35.300781 54.113281 L 35.300781 18.226562 C 35.726562 18.242188 36.15625 18.253906 36.59375 18.253906 C 37.042969 18.253906 37.488281 18.242188 37.929688 18.222656 L 37.929688 54.078125 C 46.644531 52.867188 54.878906 47.816406 59.386719 41.398438 C 60.273438 38.78125 60.65625 35.988281 60.421875 33.679688 C 60.835938 29.117188 60.222656 24.066406 58.847656 19.476562 C 57.445312 14.808594 55.285156 10.59375 52.34375 7.929688 C 52.097656 7.496094 51.761719 7.105469 51.375 6.753906 C 50.574219 6.019531 49.53125 5.402344 48.171875 4.863281 C 45.457031 3.789062 41.570312 3.058594 36.59375 3.058594 Z M 36.59375 5.6875 C 41.316406 5.6875 44.898438 6.421875 47.1875 7.328125 C 48.332031 7.785156 49.179688 8.214844 49.648438 8.644531 C 50.117188 9.070312 50.140625 9.414062 50.140625 9.464844 C 50.140625 10.949219 48.972656 12.441406 46.527344 13.652344 C 44.085938 14.867188 40.527344 15.625 36.59375 15.625 C 32.640625 15.625 29.09375 14.914062 26.65625 13.738281 C 24.222656 12.5625 23.039062 11.140625 23.039062 9.464844 C 23.039062 9.414062 23.148438 9.070312 23.617188 8.644531 C 24.085938 8.214844 24.851562 7.785156 25.996094 7.328125 C 28.289062 6.421875 31.871094 5.6875 36.59375 5.6875 Z M 52.253906 11.769531 C 53.917969 13.972656 55.347656 16.949219 56.332031 20.234375 C 57.402344 23.789062 57.964844 27.691406 57.910156 31.289062 C 55.625 29.402344 53.898438 26.414062 52.761719 23.214844 C 51.542969 19.789062 50.992188 16.042969 51.632812 12.832031 C 51.875 12.492188 52.085938 12.136719 52.253906 11.769531 Z M 20.914062 11.820312 C 20.992188 12.003906 21.078125 12.183594 21.175781 12.359375 C 21.949219 16.011719 21.3125 20.070312 19.929688 23.640625 C 18.8125 26.527344 17.234375 29.128906 15.292969 30.921875 C 15.28125 27.425781 15.84375 23.667969 16.875 20.234375 C 17.851562 16.976562 19.269531 14.019531 20.914062 11.820312 Z M 54.953125 49.699219 C 49.8125 53.640625 43.328125 56.304688 36.59375 56.878906 L 36.484375 56.886719 L 36.367188 56.878906 C 29.710938 56.3125 23.320312 53.6875 18.210938 49.820312 C 18.078125 50.25 18.007812 50.679688 18.007812 51.109375 C 18.007812 53.292969 19.773438 55.535156 23.132812 57.285156 C 26.492188 59.039062 31.289062 60.179688 36.601562 60.179688 C 41.914062 60.179688 46.710938 59.039062 50.070312 57.285156 C 53.429688 55.535156 55.195312 53.292969 55.195312 51.109375 C 55.195312 50.640625 55.113281 50.167969 54.953125 49.699219 Z M 16.1875 54.378906 C 13.746094 56.183594 12.453125 58.242188 12.453125 60.261719 C 12.453125 61.882812 13.902344 64.382812 16.132812 66.324219 C 18.105469 68.039062 20.617188 69.304688 22.785156 69.574219 C 24.148438 66.386719 25.632812 63.730469 27.238281 61.636719 C 25.28125 61.117188 23.488281 60.4375 21.914062 59.617188 C 19.324219 58.265625 17.261719 56.480469 16.1875 54.378906 Z M 57.011719 54.390625 C 55.9375 56.488281 53.875 58.269531 51.289062 59.617188 C 49.710938 60.441406 47.90625 61.121094 45.941406 61.640625 C 47.542969 63.734375 49.027344 66.386719 50.390625 69.570312 C 52.457031 69.289062 54.96875 68.03125 56.960938 66.324219 C 59.226562 64.378906 60.722656 61.867188 60.722656 60.261719 C 60.722656 58.246094 59.4375 56.195312 57.011719 54.390625 Z M 57.011719 54.390625 "/>
</g>
</svg>
