<?xml version="1.0" encoding="UTF-8"?>
<svg xmlns="http://www.w3.org/2000/svg" xmlns:xlink="http://www.w3.org/1999/xlink" width="72px" height="72px" viewBox="0 0 72 72" version="1.1">
<g id="surface1">
<path style=" stroke:none;fill-rule:nonzero;fill:rgb(14.901961%,25.882353%,54.509804%);fill-opacity:1;" d="M 12.539062 3.511719 L 9.5 7.871094 L 46.097656 33.382812 L 49.148438 29.023438 Z M 53.648438 26.972656 L 46.914062 36.632812 L 46.742188 36.757812 C 41.511719 40.527344 37.25 41.46875 32.976562 41.679688 C 33.355469 42.3125 33.890625 43.074219 34.550781 43.847656 C 35.886719 45.421875 37.6875 47.179688 39.726562 48.796875 C 41.679688 50.328125 43.832031 51.707031 45.96875 52.707031 L 50.949219 52.539062 C 50.511719 49.234375 50.386719 45.40625 53.480469 40.964844 L 60.117188 31.457031 Z M 59.738281 36.421875 L 56.699219 40.765625 L 59.878906 42.988281 L 62.914062 38.628906 Z M 12.53125 47.867188 C 11.917969 47.867188 11.382812 48.050781 11.070312 48.277344 C 10.753906 48.5 10.6875 48.683594 10.6875 48.824219 C 10.6875 48.964844 10.753906 49.148438 11.070312 49.375 C 11.382812 49.597656 11.917969 49.78125 12.53125 49.78125 C 13.144531 49.78125 13.679688 49.597656 13.992188 49.375 C 14.316406 49.148438 14.386719 48.964844 14.386719 48.824219 C 14.386719 48.683594 14.316406 48.5 13.992188 48.277344 C 13.679688 48.050781 13.144531 47.867188 12.53125 47.867188 Z M 10.53125 51.933594 C 10.265625 52.917969 9.882812 53.875 9.359375 55.011719 C 8.367188 54.984375 7.371094 54.941406 6.378906 54.898438 C 4.386719 56.195312 3.28125 57.992188 2.835938 59.878906 L 8.1875 61.015625 L 2.605469 62.015625 L 2.605469 62.15625 C 2.679688 64.800781 4 66.992188 5.460938 67.570312 C 24.933594 68.78125 44.113281 68.457031 63.238281 67.835938 C 62.945312 67.148438 62.691406 66.390625 62.492188 65.558594 L 55.460938 64.390625 C 55.460938 64.390625 60.0625 63.617188 62.128906 63.253906 C 62.085938 62.691406 62.058594 62.113281 62.058594 61.507812 C 62.058594 59.078125 62.480469 56.882812 63.253906 55.167969 C 63.351562 54.929688 63.464844 54.703125 63.589844 54.492188 L 63.589844 54.40625 C 47.910156 55.433594 32.089844 55.644531 16.15625 55.222656 C 15.3125 54.15625 14.792969 53.101562 14.484375 51.960938 C 13.886719 52.1875 13.226562 52.3125 12.53125 52.3125 C 11.816406 52.3125 11.140625 52.1875 10.53125 51.933594 Z M 66.992188 54.535156 C 66.867188 54.535156 66.710938 54.578125 66.445312 54.84375 C 66.164062 55.097656 65.839844 55.5625 65.558594 56.195312 C 64.996094 57.472656 64.589844 59.386719 64.589844 61.507812 C 64.589844 61.820312 64.601562 62.128906 64.617188 62.421875 L 67.554688 59.792969 L 65.152344 65.671875 C 65.277344 66.09375 65.40625 66.488281 65.558594 66.824219 C 65.839844 67.457031 66.164062 67.921875 66.445312 68.175781 C 66.710938 68.441406 66.867188 68.484375 66.992188 68.484375 C 67.121094 68.484375 67.273438 68.441406 67.542969 68.175781 C 67.824219 67.921875 68.148438 67.457031 68.429688 66.824219 C 68.992188 65.546875 69.398438 63.632812 69.398438 61.507812 C 69.398438 59.386719 68.992188 57.472656 68.429688 56.195312 C 68.148438 55.5625 67.824219 55.097656 67.542969 54.84375 C 67.273438 54.578125 67.121094 54.535156 66.992188 54.535156 Z M 66.992188 54.535156 "/>
</g>
</svg>
