<?xml version="1.0" encoding="UTF-8"?>
<svg xmlns="http://www.w3.org/2000/svg" xmlns:xlink="http://www.w3.org/1999/xlink" width="72px" height="72px" viewBox="0 0 72 72" version="1.1">
<g id="surface1">
<path style=" stroke:none;fill-rule:nonzero;fill:rgb(14.901961%,25.882353%,54.509804%);fill-opacity:1;" d="M 64.597656 6.066406 C 57.246094 7.289062 48.738281 12.628906 40.4375 19.691406 C 33.097656 25.9375 25.984375 33.574219 20.351562 41.109375 L 22.976562 43.234375 C 24.835938 40.742188 26.875 38.226562 29.035156 35.753906 L 27.933594 34.601562 L 29.761719 32.851562 C 30.460938 33.621094 31.203125 34.347656 31.957031 35.097656 C 30.335938 40.550781 26.441406 46.3125 21.734375 50.921875 C 22.410156 51.453125 23.039062 52.191406 23.398438 52.855469 C 28.460938 47.953125 32.636719 41.816406 34.410156 35.6875 C 40.578125 33.308594 43.804688 28.804688 47.015625 22.90625 C 55.382812 21.683594 61.4375 17.183594 64.875 13.066406 C 65.59375 15.003906 66.304688 16.945312 66.699219 18.84375 C 67.242188 21.457031 67.226562 23.917969 65.996094 26.34375 C 63.769531 30.726562 59.5625 32.8125 56.285156 35.007812 C 54.648438 36.109375 53.152344 37.257812 52.546875 39.050781 C 51.941406 40.84375 52.5 42.929688 54.183594 45.277344 C 55.976562 47.785156 58.601562 49.605469 60.375 51.40625 C 60.847656 51.886719 61.253906 52.355469 61.578125 52.820312 C 61.871094 52.761719 62.175781 52.730469 62.484375 52.730469 C 63.269531 52.730469 64.007812 52.929688 64.65625 53.277344 C 64.640625 53.222656 64.621094 53.171875 64.601562 53.121094 C 64.089844 51.769531 63.1875 50.652344 62.179688 49.628906 C 60.160156 47.582031 57.667969 45.800781 56.242188 43.804688 C 54.796875 41.785156 54.667969 40.6875 54.945312 39.859375 C 55.226562 39.03125 56.183594 38.125 57.695312 37.113281 C 60.71875 35.082031 65.597656 32.722656 68.253906 27.488281 C 69.800781 24.441406 69.789062 21.277344 69.175781 18.328125 C 68.171875 13.726562 66.421875 9.972656 64.597656 6.066406 Z M 62.796875 7.917969 L 63.875 10.230469 C 61.125 14.078125 55.253906 19.089844 46.84375 20.386719 L 46.253906 19.316406 C 51.539062 15.230469 56.777344 12.078125 61.292969 10.445312 L 60.605469 8.886719 Z M 43.339844 19.542969 C 43.835938 20.273438 44.335938 21.074219 44.738281 21.808594 C 41.671875 27.433594 39.019531 31.15625 33.695312 33.257812 L 32.4375 32 C 35.582031 28.65625 39.191406 25.171875 42.558594 22.28125 L 41.777344 21.195312 Z M 18.582031 42.933594 L 17.34375 44.464844 L 20.621094 47.121094 L 21.859375 45.589844 Z M 15.75 46.429688 L 2.4375 62.871094 C 2.441406 62.914062 2.464844 63.03125 2.554688 63.210938 C 2.75 63.59375 3.214844 64.148438 3.761719 64.589844 C 4.308594 65.03125 4.945312 65.371094 5.363281 65.484375 C 5.554688 65.535156 5.671875 65.53125 5.71875 65.527344 L 12.710938 56.890625 C 12.3125 55.210938 12.664062 53.371094 13.828125 51.933594 C 14.992188 50.496094 16.71875 49.769531 18.445312 49.804688 L 19.027344 49.085938 Z M 18.28125 52.320312 C 17.351562 52.328125 16.433594 52.738281 15.796875 53.527344 C 14.664062 54.925781 14.875 56.941406 16.273438 58.074219 C 17.675781 59.207031 19.691406 58.996094 20.824219 57.597656 C 20.890625 57.515625 20.949219 57.429688 21.007812 57.34375 L 23.472656 57.800781 L 22.480469 63.191406 L 24.96875 63.652344 L 26.421875 55.769531 L 21.472656 54.855469 C 21.320312 54.171875 20.941406 53.53125 20.34375 53.046875 C 19.734375 52.550781 19.003906 52.3125 18.28125 52.320312 Z M 62.484375 55.261719 C 61.304688 55.261719 60.375 56.191406 60.375 57.371094 C 60.375 58.09375 60.726562 58.726562 61.273438 59.105469 C 61.203125 59.730469 61.085938 60.496094 60.859375 61.21875 C 60.375 62.636719 59.707031 63.632812 58.402344 63.355469 C 57.410156 62.976562 57.308594 61.953125 57.363281 61.082031 L 59.140625 61.050781 L 55.386719 55.3125 C 55.121094 56.277344 54.617188 60.164062 54.878906 62.34375 C 54.96875 62.988281 55.164062 63.710938 55.632812 64.378906 C 56.101562 65.042969 56.882812 65.609375 57.847656 65.828125 C 59.316406 66.152344 60.703125 65.714844 61.59375 64.890625 C 62.484375 64.070312 62.960938 62.996094 63.28125 61.96875 C 63.617188 60.875 63.765625 59.789062 63.832031 59 C 64.300781 58.617188 64.59375 58.035156 64.59375 57.371094 C 64.59375 56.191406 63.664062 55.261719 62.484375 55.261719 Z M 62.484375 55.261719 "/>
</g>
</svg>
