<?xml version="1.0" encoding="UTF-8"?>
<svg xmlns="http://www.w3.org/2000/svg" xmlns:xlink="http://www.w3.org/1999/xlink" width="72px" height="72px" viewBox="0 0 72 72" version="1.1">
<g id="surface1">
<path style=" stroke:none;fill-rule:nonzero;fill:rgb(96.078431%,81.176471%,36.862745%);fill-opacity:1;" d="M 20.277344 2.675781 C 18.773438 2.675781 17.421875 3.429688 16.609375 4.578125 C 14.625 4.414062 12.632812 4.542969 10.8125 5.0625 C 9.984375 4.128906 8.773438 3.539062 7.4375 3.539062 C 4.964844 3.539062 2.925781 5.578125 2.925781 8.058594 C 2.925781 9.4375 3.558594 10.675781 4.542969 11.507812 C 4.261719 12.9375 4.273438 14.246094 4.515625 15.441406 C 3.375 16.257812 2.644531 17.59375 2.644531 19.082031 C 2.644531 21.558594 4.683594 23.597656 7.15625 23.597656 C 8.296875 23.597656 9.351562 23.175781 10.140625 22.457031 C 10.800781 22.894531 11.460938 23.300781 12.148438 23.710938 C 12.109375 23.921875 12.09375 24.144531 12.09375 24.371094 C 12.09375 26.84375 14.132812 28.882812 16.609375 28.882812 C 17.410156 28.882812 18.167969 28.671875 18.816406 28.292969 C 19.335938 28.785156 19.800781 29.304688 20.222656 29.855469 C 19.421875 30.671875 18.929688 31.78125 18.929688 33.003906 C 18.929688 35.140625 20.445312 36.941406 22.445312 37.40625 C 22.402344 38.390625 22.273438 39.460938 22.035156 40.625 C 20.953125 41.695312 20.277344 43.1875 20.277344 44.816406 C 20.277344 46.421875 20.925781 47.882812 21.964844 48.953125 L 20.082031 64.882812 L 23.554688 59.78125 C 24.03125 55.8125 24.511719 51.765625 24.90625 48.359375 C 26.578125 47.601562 27.941406 46.953125 29.460938 46.28125 C 33.273438 47.882812 36.660156 49.402344 40.035156 50.820312 L 45.828125 50.539062 L 32.089844 44.621094 C 32.035156 42.820312 31.148438 41.21875 29.828125 40.175781 C 30.683594 38.433594 31.585938 37.011719 32.570312 35.859375 C 33.101562 36.097656 33.707031 36.226562 34.339844 36.226562 C 36.816406 36.226562 38.855469 34.1875 38.855469 31.710938 C 38.855469 31.585938 38.855469 31.457031 38.839844 31.34375 C 39.867188 30.921875 40.9375 30.558594 42.046875 30.207031 C 42.847656 31.457031 44.253906 32.289062 45.828125 32.289062 C 48.320312 32.289062 50.34375 30.25 50.34375 27.757812 L 50.34375 27.660156 C 51.398438 27.28125 52.46875 26.832031 53.550781 26.324219 C 54.378906 27.296875 55.617188 27.929688 56.980469 27.929688 C 59.457031 27.929688 61.496094 25.890625 61.496094 23.398438 C 61.496094 22.726562 61.339844 22.0625 61.058594 21.472656 C 61.960938 20.726562 62.875 19.855469 63.546875 19 C 63.957031 19.125 64.390625 19.179688 64.84375 19.179688 C 67.316406 19.179688 69.355469 17.140625 69.355469 14.667969 C 69.355469 12.261719 67.445312 10.269531 65.066406 10.15625 C 63.519531 7.835938 60.242188 6.710938 58.105469 7.34375 C 57.277344 6.242188 55.953125 5.527344 54.492188 5.527344 C 52.003906 5.527344 49.964844 7.566406 49.964844 10.042969 C 49.964844 10.421875 50.019531 10.789062 50.105469 11.140625 C 49.457031 11.347656 48.796875 11.515625 48.109375 11.65625 C 47.445312 9.976562 45.800781 8.773438 43.902344 8.773438 C 41.890625 8.773438 40.191406 10.097656 39.601562 11.90625 C 38.460938 11.769531 37.25 11.570312 36.265625 11.371094 C 36.183594 8.96875 34.1875 7.03125 31.753906 7.03125 C 30.277344 7.03125 28.941406 7.761719 28.125 8.878906 C 26.972656 8.417969 25.859375 7.921875 24.792969 7.394531 L 24.792969 7.191406 C 24.792969 4.714844 22.753906 2.675781 20.277344 2.675781 Z M 20.277344 5.300781 C 21.332031 5.300781 22.164062 6.132812 22.164062 7.191406 C 22.164062 8.25 21.332031 9.082031 20.277344 9.082031 C 19.222656 9.082031 18.378906 8.25 18.378906 7.191406 C 18.378906 6.132812 19.222656 5.300781 20.277344 5.300781 Z M 7.4375 6.167969 C 8.507812 6.167969 9.335938 7 9.335938 8.058594 C 9.335938 9.117188 8.507812 9.945312 7.4375 9.945312 C 6.382812 9.945312 5.554688 9.117188 5.554688 8.058594 C 5.554688 7 6.382812 6.167969 7.4375 6.167969 Z M 15.765625 7.164062 L 15.765625 7.191406 C 15.765625 9.671875 17.804688 11.710938 20.277344 11.710938 C 21.753906 11.710938 23.078125 10.988281 23.90625 9.882812 C 24.976562 10.40625 26.101562 10.902344 27.238281 11.363281 L 27.238281 11.542969 C 27.238281 14.023438 29.277344 16.058594 31.753906 16.058594 C 33.371094 16.058594 34.789062 15.203125 35.59375 13.914062 C 37.011719 14.175781 38.277344 14.429688 39.558594 14.554688 C 40.121094 16.425781 41.851562 17.804688 43.902344 17.804688 C 46.027344 17.804688 47.828125 16.296875 48.289062 14.300781 C 49.402344 14.089844 50.46875 13.808594 51.511719 13.4375 C 52.3125 14.132812 53.351562 14.570312 54.492188 14.570312 C 56.96875 14.570312 59.007812 12.523438 59.007812 10.042969 L 59.007812 9.796875 C 60.441406 9.601562 61.621094 10.089844 62.367188 10.894531 C 61.144531 11.707031 60.3125 13.097656 60.3125 14.667969 C 60.3125 15.765625 60.707031 16.75 61.367188 17.550781 C 60.707031 18.324219 60.019531 18.914062 59.300781 19.53125 C 58.625 19.125 57.824219 18.886719 56.980469 18.886719 C 54.507812 18.886719 52.46875 20.925781 52.46875 23.398438 C 52.46875 23.582031 52.480469 23.75 52.496094 23.933594 C 51.496094 24.398438 50.5 24.804688 49.515625 25.171875 C 48.699219 24.003906 47.347656 23.246094 45.828125 23.246094 C 43.382812 23.246094 41.359375 25.242188 41.316406 27.6875 C 40.164062 28.039062 39.023438 28.460938 37.898438 28.941406 C 37.070312 27.886719 35.773438 27.195312 34.339844 27.195312 C 31.867188 27.195312 29.828125 29.222656 29.828125 31.710938 C 29.828125 32.640625 30.109375 33.511719 30.601562 34.226562 C 29.460938 35.550781 28.40625 37.140625 27.449219 39.050781 C 26.59375 38.882812 25.734375 38.855469 24.945312 39.050781 C 25.015625 38.417969 25.058594 37.800781 25.058594 37.222656 C 26.746094 36.5625 27.957031 34.917969 27.957031 33.003906 C 27.957031 30.53125 25.917969 28.492188 23.441406 28.492188 C 23.132812 28.492188 22.835938 28.519531 22.554688 28.574219 C 21.980469 27.773438 21.332031 27.054688 20.644531 26.394531 C 20.953125 25.777344 21.121094 25.085938 21.121094 24.371094 C 21.121094 21.882812 19.082031 19.855469 16.609375 19.855469 C 15.300781 19.855469 14.117188 20.417969 13.289062 21.320312 C 12.683594 20.9375 12.09375 20.574219 11.53125 20.207031 C 11.628906 19.84375 11.671875 19.476562 11.671875 19.082031 C 11.671875 16.609375 9.632812 14.570312 7.15625 14.570312 C 7.085938 14.570312 7.015625 14.570312 6.945312 14.582031 C 6.863281 13.972656 6.890625 13.308594 7.015625 12.554688 C 7.15625 12.566406 7.296875 12.574219 7.4375 12.574219 C 9.929688 12.574219 11.96875 10.535156 11.96875 8.058594 C 11.96875 7.863281 11.953125 7.667969 11.925781 7.484375 C 13.207031 7.179688 14.511719 7.097656 15.765625 7.164062 Z M 54.492188 8.15625 C 55.546875 8.15625 56.375 8.984375 56.375 10.042969 C 56.375 11.101562 55.546875 11.933594 54.492188 11.933594 C 53.421875 11.933594 52.59375 11.101562 52.59375 10.042969 C 52.59375 8.984375 53.421875 8.15625 54.492188 8.15625 Z M 31.753906 9.65625 C 32.820312 9.65625 33.636719 10.484375 33.636719 11.542969 C 33.636719 12.601562 32.820312 13.429688 31.753906 13.429688 C 30.699219 13.429688 29.867188 12.601562 29.867188 11.542969 C 29.867188 10.484375 30.699219 9.65625 31.753906 9.65625 Z M 43.902344 11.402344 C 44.957031 11.402344 45.789062 12.226562 45.789062 13.285156 C 45.789062 14.359375 44.957031 15.1875 43.902344 15.1875 C 42.835938 15.1875 42.003906 14.359375 42.003906 13.285156 C 42.003906 12.226562 42.835938 11.402344 43.902344 11.402344 Z M 64.84375 12.777344 C 65.898438 12.777344 66.726562 13.609375 66.726562 14.667969 C 66.726562 15.734375 65.898438 16.550781 64.84375 16.550781 C 63.773438 16.550781 62.957031 15.734375 62.957031 14.667969 C 62.957031 13.609375 63.773438 12.777344 64.84375 12.777344 Z M 7.15625 17.183594 C 8.210938 17.183594 9.054688 18.027344 9.054688 19.082031 C 9.054688 20.136719 8.210938 20.980469 7.15625 20.980469 C 6.101562 20.980469 5.273438 20.136719 5.273438 19.082031 C 5.273438 18.027344 6.101562 17.183594 7.15625 17.183594 Z M 56.980469 21.515625 C 58.035156 21.515625 58.878906 22.34375 58.878906 23.398438 C 58.878906 24.46875 58.035156 25.296875 56.980469 25.296875 C 55.925781 25.296875 55.097656 24.46875 55.097656 23.398438 C 55.097656 22.34375 55.925781 21.515625 56.980469 21.515625 Z M 16.609375 22.472656 C 17.664062 22.472656 18.507812 23.300781 18.507812 24.371094 C 18.507812 25.425781 17.664062 26.253906 16.609375 26.253906 C 15.554688 26.253906 14.722656 25.425781 14.722656 24.371094 C 14.722656 23.300781 15.554688 22.472656 16.609375 22.472656 Z M 45.828125 25.875 C 46.898438 25.875 47.714844 26.703125 47.714844 27.757812 C 47.714844 28.828125 46.898438 29.65625 45.828125 29.65625 C 44.773438 29.65625 43.945312 28.828125 43.945312 27.757812 C 43.945312 26.703125 44.773438 25.875 45.828125 25.875 Z M 34.339844 29.828125 C 35.394531 29.828125 36.226562 30.640625 36.226562 31.710938 C 36.226562 32.765625 35.394531 33.59375 34.339844 33.59375 C 33.285156 33.59375 32.457031 32.765625 32.457031 31.710938 C 32.457031 30.640625 33.285156 29.828125 34.339844 29.828125 Z M 23.441406 31.105469 C 24.496094 31.105469 25.328125 31.949219 25.328125 33.003906 C 25.328125 34.058594 24.496094 34.890625 23.441406 34.890625 C 22.386719 34.890625 21.558594 34.058594 21.558594 33.003906 C 21.558594 31.949219 22.386719 31.105469 23.441406 31.105469 Z M 26.183594 41.539062 C 27.324219 41.695312 28.589844 42.273438 29.125 43.355469 C 26.296875 44.394531 24.960938 44.875 23.007812 45.648438 C 22.753906 44.113281 22.949219 42.804688 24.414062 42.0625 C 24.960938 41.78125 25.578125 41.457031 26.183594 41.539062 Z M 29.488281 49.148438 L 27.335938 50.132812 L 26.351562 58.554688 L 33.707031 59.007812 L 37.011719 52.382812 Z M 47.65625 53.085938 L 39.402344 53.492188 L 35.902344 60.511719 L 40.148438 68.148438 Z M 25.789062 61.15625 L 20.925781 68.300781 L 37.800781 69.328125 L 33.511719 61.621094 Z M 25.789062 61.15625 "/>
</g>
</svg>
