<?xml version="1.0" encoding="UTF-8"?>
<svg xmlns="http://www.w3.org/2000/svg" xmlns:xlink="http://www.w3.org/1999/xlink" width="72px" height="72px" viewBox="0 0 72 72" version="1.1">
<g id="surface1">
<path style=" stroke:none;fill-rule:nonzero;fill:rgb(96.078431%,81.176471%,36.862745%);fill-opacity:1;" d="M 17.550781 54.691406 C 18.230469 55.359375 19.019531 55.910156 19.882812 56.320312 L 15.085938 61.183594 C 14.378906 59.359375 12.929688 57.929688 11.097656 57.242188 L 15.902344 52.382812 C 16.320312 53.238281 16.878906 54.015625 17.550781 54.691406 Z M 47.027344 15.816406 C 42.421875 20.476562 38.894531 26.941406 32.539062 33.375 C 31.257812 34.671875 26.875 38.625 24.34375 40.90625 L 31.265625 47.746094 C 33.511719 45.179688 37.414062 40.75 38.695312 39.449219 C 45.046875 33.019531 51.46875 29.410156 56.074219 24.757812 C 63.660156 17.082031 67.640625 4.007812 67.640625 4.007812 C 67.640625 4.007812 54.609375 8.140625 47.027344 15.816406 Z M 11.765625 60.550781 C 10.054688 58.863281 7.304688 58.878906 5.613281 60.589844 C 3.925781 62.296875 3.945312 65.050781 5.652344 66.738281 C 7.359375 68.425781 10.113281 68.410156 11.800781 66.703125 C 12.613281 65.882812 13.070312 64.773438 13.0625 63.621094 C 13.054688 62.464844 12.589844 61.359375 11.765625 60.550781 Z M 24.578125 54.84375 C 26.148438 54.84375 27.507812 54.449219 28.023438 53.921875 L 30.960938 50.953125 L 21.132812 41.242188 L 18.207031 44.214844 C 17.085938 45.347656 16.625 50.269531 19.308594 52.921875 C 20.734375 54.328125 22.796875 54.839844 24.578125 54.839844 Z M 24.578125 54.84375 "/>
</g>
</svg>
