<?xml version="1.0" encoding="UTF-8"?>
<svg xmlns="http://www.w3.org/2000/svg" xmlns:xlink="http://www.w3.org/1999/xlink" width="72px" height="72px" viewBox="0 0 72 72" version="1.1">
<g id="surface1">
<path style=" stroke:none;fill-rule:nonzero;fill:rgb(96.078431%,81.176471%,36.862745%);fill-opacity:1;" d="M 18 3.203125 C 16.4375 4.742188 15.210938 7.085938 14.332031 8.996094 C 15.183594 11.820312 15.890625 14.746094 18.207031 16.722656 C 20.859375 14.75 22.007812 11.976562 23.152344 8.796875 C 21.746094 7.195312 20.308594 4.832031 18 3.203125 Z M 54 3.203125 C 51.691406 4.832031 50.253906 7.195312 48.847656 8.796875 C 49.992188 11.976562 51.140625 14.75 53.792969 16.722656 C 56.109375 14.746094 56.816406 11.820312 57.667969 8.996094 C 56.789062 7.085938 55.5625 4.742188 54 3.203125 Z M 31.25 6.484375 C 29.628906 6.871094 27.742188 7.5 26.042969 8.265625 C 24.828125 12.332031 22.960938 16.050781 19.578125 18.777344 L 21.90625 43.679688 L 19.101562 42.496094 L 17.046875 18.898438 C 14.773438 16.648438 13.109375 12.851562 11.648438 8.875 C 11.152344 8.550781 10.652344 8.292969 10.15625 8.113281 C 11.03125 19.773438 13.71875 34.371094 16.765625 46.726562 C 17.125 46.5625 17.574219 46.390625 17.992188 46.242188 C 22.136719 47.269531 26.007812 50.371094 29.503906 53.703125 C 27 38.25 36 22.5 31.25 6.484375 Z M 40.75 6.484375 C 36 22.5 45 38.25 42.496094 53.703125 C 45.992188 50.367188 49.863281 47.269531 54.007812 46.242188 C 54.425781 46.390625 54.875 46.5625 55.234375 46.726562 C 58.28125 34.371094 60.96875 19.773438 61.84375 8.113281 C 61.347656 8.292969 60.847656 8.550781 60.351562 8.875 C 58.890625 12.851562 57.222656 16.648438 54.953125 18.898438 L 52.898438 42.496094 L 50.09375 43.679688 L 52.421875 18.777344 C 49.039062 16.050781 47.171875 12.332031 45.957031 8.265625 C 44.257812 7.5 42.371094 6.871094 40.75 6.484375 Z M 18.140625 48.914062 C 16.269531 49.710938 14.214844 51.496094 13.5 53.789062 C 16.835938 54.445312 20.925781 56.378906 24.121094 59.46875 L 24.675781 63.246094 L 29.378906 61.546875 L 29.195312 57.457031 C 26.417969 53.421875 22.011719 50.015625 18.140625 48.914062 Z M 53.859375 48.914062 C 49.988281 50.015625 45.585938 53.421875 42.804688 57.457031 L 42.621094 61.546875 L 47.324219 63.246094 L 47.878906 59.46875 C 51.074219 56.378906 55.164062 54.445312 58.5 53.789062 C 57.785156 51.496094 55.730469 49.710938 53.859375 48.914062 Z M 12.753906 56.207031 L 5.40625 61.730469 C 3.953125 63.875 3.585938 66.316406 4.1875 68.363281 C 11.578125 69.667969 16.597656 67.898438 22.332031 64.730469 L 21.734375 60.640625 C 19.664062 58.511719 17 56.933594 12.753906 56.207031 Z M 59.246094 56.207031 C 55 56.933594 52.335938 58.511719 50.265625 60.640625 L 49.667969 64.730469 C 55.402344 67.898438 60.421875 69.667969 67.8125 68.363281 C 68.414062 66.316406 68.046875 63.875 66.59375 61.730469 Z M 59.246094 56.207031 "/>
</g>
</svg>
