<?xml version="1.0" encoding="UTF-8"?>
<svg xmlns="http://www.w3.org/2000/svg" xmlns:xlink="http://www.w3.org/1999/xlink" width="72px" height="72px" viewBox="0 0 72 72" version="1.1">
<g id="surface1">
<path style=" stroke:none;fill-rule:nonzero;fill:rgb(96.078431%,81.176471%,36.862745%);fill-opacity:1;" d="M 64.109375 3.070312 L 63.984375 3.070312 C 63.589844 3.09375 63.15625 3.238281 62.632812 3.535156 L 55.222656 10.839844 C 55.054688 11.089844 55.011719 11.300781 55.082031 11.652344 C 55.167969 12.019531 55.421875 12.496094 55.785156 12.894531 C 56.152344 13.296875 56.617188 13.617188 57.023438 13.757812 C 57.347656 13.878906 57.558594 13.867188 57.710938 13.816406 L 66.445312 5.175781 C 66.375 5.25 66.445312 5.195312 66.359375 4.902344 C 66.277344 4.585938 66.023438 4.136719 65.65625 3.789062 C 65.234375 3.386719 64.742188 3.074219 64.109375 3.070312 Z M 49.527344 6.800781 C 49.34375 6.800781 49.175781 6.800781 49.035156 6.820312 C 48.429688 6.886719 48.09375 7.078125 47.882812 7.339844 C 47.671875 7.601562 47.546875 7.976562 47.574219 8.609375 C 47.601562 9.242188 47.8125 10.09375 48.234375 11.019531 C 49.09375 12.917969 50.75 15.171875 52.972656 17.171875 C 55.195312 19.179688 57.570312 20.558594 59.484375 21.136719 C 60.425781 21.429688 61.257812 21.53125 61.859375 21.460938 C 62.453125 21.390625 62.789062 21.207031 63 20.9375 C 63.210938 20.671875 63.335938 20.304688 63.308594 19.671875 C 63.28125 19.039062 63.070312 18.183594 62.648438 17.253906 C 62.242188 16.328125 61.621094 15.3125 60.847656 14.289062 C 60.160156 15.019531 59.75 15.695312 58.976562 16.046875 C 58.050781 16.523438 57.023438 16.453125 56.152344 16.144531 C 55.292969 15.835938 54.535156 15.285156 53.914062 14.609375 C 53.296875 13.933594 52.804688 13.117188 52.609375 12.179688 C 52.410156 11.246094 52.566406 10.140625 53.242188 9.269531 L 53.28125 9.199219 L 54.140625 8.359375 C 53.171875 7.808594 52.242188 7.394531 51.398438 7.136719 C 50.695312 6.914062 50.046875 6.8125 49.527344 6.800781 Z M 45.113281 8.914062 C 43.71875 10.019531 40.613281 12.65625 40.527344 14.570312 C 41.625 22.835938 48.8125 28.703125 54.042969 29.054688 C 56.867188 28.589844 58.9375 26.367188 60.707031 24.03125 C 60.089844 23.960938 59.457031 23.820312 58.808594 23.625 C 56.445312 22.894531 53.832031 21.347656 51.371094 19.140625 C 48.910156 16.917969 47.054688 14.457031 46.011719 12.113281 C 45.507812 11.03125 45.195312 9.953125 45.113281 8.914062 Z M 40.894531 24.285156 L 34.859375 30.769531 C 34.71875 30.9375 34.679688 31.0625 34.804688 31.5 C 34.929688 31.949219 35.296875 32.539062 35.773438 33.046875 C 36.238281 33.554688 36.828125 33.945312 37.28125 34.117188 C 37.671875 34.269531 37.8125 34.242188 37.871094 34.199219 L 44.113281 27.578125 C 42.875 26.664062 41.738281 25.59375 40.894531 24.285156 Z M 27.816406 26.605469 C 26.648438 26.632812 25.929688 27.015625 25.648438 27.492188 C 25.285156 28.140625 25.410156 29.503906 26.507812 31.332031 C 27.605469 33.171875 29.574219 35.28125 32.0625 37.039062 C 34.550781 38.796875 37.097656 39.882812 39.066406 40.203125 C 41.035156 40.527344 42.1875 40.078125 42.554688 39.429688 C 42.933594 38.785156 42.792969 37.433594 41.695312 35.59375 C 41.5 35.269531 41.273438 34.929688 41.035156 34.59375 C 40.472656 35.113281 40.050781 35.804688 39.417969 36.226562 C 38.476562 36.929688 37.292969 36.84375 36.378906 36.476562 C 35.453125 36.125 34.636719 35.523438 33.933594 34.789062 C 33.230469 34.046875 32.667969 33.1875 32.371094 32.21875 C 32.089844 31.234375 32.160156 30.007812 32.949219 29.109375 L 32.976562 29.082031 L 33.734375 28.28125 C 32.078125 27.421875 30.515625 26.957031 29.136719 26.71875 C 28.699219 26.644531 28.257812 26.605469 27.816406 26.605469 Z M 23.203125 29.714844 C 21.824219 31.585938 20.558594 33.679688 19.828125 35.929688 C 20.882812 40.316406 22.949219 43.1875 25.609375 45.226562 C 28.25 47.265625 31.527344 48.445312 34.988281 49.21875 C 37.632812 48.261719 39.347656 45.617188 40.753906 42.960938 C 40.121094 42.976562 39.460938 42.933594 38.785156 42.820312 C 36.367188 42.414062 33.566406 41.1875 30.796875 39.25 C 28.039062 37.292969 25.859375 35 24.496094 32.722656 C 23.90625 31.738281 23.441406 30.710938 23.203125 29.714844 Z M 51.203125 34.734375 C 46.238281 42.3125 55.335938 54.816406 48.304688 58.765625 C 45.140625 60.539062 39.628906 57.964844 38.40625 54.253906 C 38.628906 59.695312 40.796875 68.5 50.007812 69.089844 L 66.359375 69.089844 C 70.144531 62.84375 69.636719 56.757812 67.949219 50.695312 C 66.613281 54.464844 64.671875 54.605469 62.914062 53.734375 C 60.539062 52.566406 61.128906 48.742188 62.042969 45.84375 C 59.792969 47.53125 58.667969 49.414062 58.375 51.441406 C 58.007812 45.957031 50.34375 43.015625 51.203125 34.734375 Z M 9.136719 40.035156 C 8.289062 40.035156 7.746094 40.753906 7.683594 41.019531 C 8.097656 47.699219 7.417969 54.296875 6.890625 60.046875 L 3.71875 64.433594 C 3.882812 65.277344 4.445312 66.347656 5.3125 67.191406 C 6.175781 68.019531 7.261719 68.570312 8.320312 68.679688 C 13.742188 62.128906 19.742188 55.363281 26 48.542969 C 25.328125 48.148438 24.679688 47.714844 24.0625 47.234375 C 23.148438 46.53125 22.273438 45.730469 21.488281 44.816406 C 18.335938 48.289062 15.355469 51.722656 12.609375 55.097656 L 10.160156 58.105469 C 10.332031 52.339844 11.066406 46.140625 10.953125 41.0625 C 10.265625 40.304688 9.648438 40.035156 9.136719 40.035156 Z M 9.136719 40.035156 "/>
</g>
</svg>
