<?xml version="1.0" encoding="UTF-8"?>
<svg xmlns="http://www.w3.org/2000/svg" xmlns:xlink="http://www.w3.org/1999/xlink" width="72px" height="72px" viewBox="0 0 72 72" version="1.1">
<g id="surface1">
<path style=" stroke:none;fill-rule:nonzero;fill:rgb(14.901961%,25.882353%,54.509804%);fill-opacity:1;" d="M 16.007812 2.492188 C 14.824219 2.496094 13.644531 2.609375 12.480469 2.835938 C 27.511719 11.882812 38.738281 23.980469 47.597656 37.96875 C 47.953125 30.410156 44.914062 22.621094 40.070312 16.277344 C 38.085938 17.023438 35.644531 16.382812 33.957031 14.695312 C 32.273438 13.011719 31.628906 10.570312 32.371094 8.585938 C 27.347656 4.796875 21.609375 2.464844 16.007812 2.492188 Z M 69.527344 5.359375 L 59.550781 16.277344 L 63.777344 33.933594 L 56.03125 35.167969 L 53.300781 46.507812 L 63.636719 52.007812 L 57.835938 59.875 L 62.007812 66.066406 L 49.523438 62.183594 L 51.84375 56.015625 L 41.058594 51.257812 L 42.902344 39.367188 L 27.242188 47.539062 L 26.648438 58.542969 L 10.867188 54.65625 L 6.191406 69.300781 L 69.527344 69.300781 Z M 36.726562 8.257812 C 36.671875 8.257812 36.617188 8.261719 36.5625 8.265625 C 36.050781 8.3125 35.59375 8.503906 35.269531 8.828125 C 34.40625 9.691406 34.460938 11.484375 35.816406 12.835938 C 37.167969 14.191406 38.957031 14.246094 39.824219 13.382812 C 40.6875 12.515625 40.632812 10.726562 39.277344 9.375 C 38.484375 8.582031 37.542969 8.234375 36.726562 8.257812 Z M 27.632812 17.941406 L 3.554688 42.027344 C 4.15625 43.707031 5.105469 44.988281 7.105469 45.632812 L 31.214844 21.515625 C 30.117188 20.265625 28.921875 19.078125 27.632812 17.941406 Z M 49.960938 19.578125 L 51.269531 31.488281 L 55.128906 19.578125 Z M 31.394531 30.121094 L 28.558594 35.171875 L 41.59375 36.210938 Z M 31.394531 30.121094 "/>
</g>
</svg>
