<?xml version="1.0" encoding="UTF-8"?>
<svg xmlns="http://www.w3.org/2000/svg" xmlns:xlink="http://www.w3.org/1999/xlink" width="72px" height="72px" viewBox="0 0 72 72" version="1.1">
<g id="surface1">
<path style=" stroke:none;fill-rule:nonzero;fill:rgb(14.901961%,25.882353%,54.509804%);fill-opacity:1;" d="M 14.890625 2.671875 L 18.507812 10.941406 C 18.605469 10.953125 18.773438 10.976562 19.054688 10.941406 C 19.714844 10.859375 20.714844 10.546875 21.65625 10.113281 C 22.585938 9.683594 23.484375 9.128906 24.019531 8.667969 C 24.230469 8.480469 24.328125 8.347656 24.398438 8.25 L 21.964844 2.671875 Z M 25.480469 10.742188 C 24.695312 11.375 23.738281 11.941406 22.710938 12.414062 C 21.671875 12.890625 20.601562 13.265625 19.589844 13.417969 L 21.882812 18.6875 L 25.507812 18.871094 L 27.816406 16.101562 Z M 40.964844 13.320312 C 38.222656 13.269531 34.382812 14.132812 30.332031 15.511719 L 30.769531 16.523438 L 27.042969 20.980469 L 26.632812 21.460938 L 20.195312 21.136719 L 19.730469 20.082031 C 13.476562 23.386719 8.675781 27.195312 9.261719 29.785156 C 14.457031 47.390625 23.667969 63.070312 31.78125 69.847656 L 33.398438 67.90625 C 26.226562 61.902344 17.15625 46.898438 12.023438 30.136719 L 17.929688 27.5625 C 23.1875 44.605469 32.132812 59.652344 40.035156 66.25 L 41.652344 64.308594 C 34.46875 58.304688 25.398438 43.3125 20.25 26.550781 L 26.171875 23.960938 C 31.429688 41.007812 40.375 56.054688 48.289062 62.648438 L 49.894531 60.707031 C 42.722656 54.703125 33.636719 39.710938 28.503906 22.949219 L 34.425781 20.363281 C 39.683594 37.40625 48.628906 52.453125 56.53125 59.046875 L 58.148438 57.109375 C 50.976562 51.101562 41.890625 36.113281 36.757812 19.351562 L 42.679688 16.761719 C 47.9375 33.792969 56.882812 48.867188 64.785156 55.449219 L 66.390625 53.507812 C 59.0625 47.375 49.753906 31.867188 44.675781 14.679688 C 44.070312 13.769531 42.75 13.347656 40.964844 13.320312 Z M 40.964844 13.320312 "/>
</g>
</svg>
