<?xml version="1.0" encoding="UTF-8"?>
<svg xmlns="http://www.w3.org/2000/svg" xmlns:xlink="http://www.w3.org/1999/xlink" width="72px" height="72px" viewBox="0 0 72 72" version="1.1">
<g id="surface1">
<path style=" stroke:none;fill-rule:nonzero;fill:rgb(96.078431%,81.176471%,36.862745%);fill-opacity:1;" d="M 13.226562 3.078125 L 2.671875 13.636719 L 8.679688 16.953125 L 4.886719 20.742188 L 20.019531 29.867188 C 14.332031 39.730469 15.699219 52.519531 24.125 60.941406 C 34.195312 71.007812 50.523438 71.007812 60.597656 60.941406 C 70.667969 50.871094 70.671875 34.550781 60.601562 24.488281 C 52.175781 16.066406 39.382812 14.703125 29.511719 20.382812 L 20.382812 5.261719 L 19.195312 6.445312 L 16.582031 9.058594 Z M 19.867188 9.492188 L 28.632812 24.015625 L 29.773438 23.277344 C 35.988281 19.246094 43.695312 18.488281 50.46875 21.015625 C 50.304688 21.011719 50.140625 21.011719 49.976562 21.011719 C 44.492188 21.011719 40.046875 23.09375 40.046875 25.660156 C 40.046875 28.230469 44.492188 30.3125 49.976562 30.3125 C 54.410156 30.3125 58.164062 28.949219 59.4375 27.070312 C 61.679688 29.507812 63.304688 32.304688 64.308594 35.261719 C 63.21875 34.785156 61.738281 34.320312 59.964844 33.917969 C 55.550781 32.917969 49.339844 32.285156 42.484375 32.285156 C 35.628906 32.285156 29.417969 32.917969 25.003906 33.917969 C 23.074219 34.355469 21.488281 34.867188 20.378906 35.386719 C 20.988281 33.558594 21.832031 31.789062 22.910156 30.128906 L 23.652344 28.988281 L 9.121094 20.226562 L 11.074219 18.277344 L 17.675781 21.921875 L 21.601562 17.996094 L 17.917969 11.4375 Z M 19.714844 37.796875 C 19.78125 37.835938 19.851562 37.875 19.925781 37.914062 C 21.035156 38.507812 22.796875 39.109375 25.003906 39.609375 C 29.417969 40.605469 35.628906 41.242188 42.484375 41.242188 C 49.339844 41.242188 55.550781 40.605469 59.964844 39.609375 C 62.167969 39.109375 63.929688 38.511719 65.039062 37.917969 C 65.214844 38.738281 65.34375 39.566406 65.425781 40.398438 C 64.097656 41 62.445312 41.507812 60.492188 41.949219 C 55.824219 43.003906 49.488281 43.640625 42.484375 43.640625 C 35.480469 43.640625 29.144531 43.003906 24.472656 41.949219 C 22.410156 41.480469 20.675781 40.941406 19.3125 40.292969 C 19.402344 39.457031 19.535156 38.621094 19.714844 37.796875 Z M 19.714844 37.796875 "/>
</g>
</svg>
