<?xml version="1.0" encoding="UTF-8"?>
<svg xmlns="http://www.w3.org/2000/svg" xmlns:xlink="http://www.w3.org/1999/xlink" width="72px" height="72px" viewBox="0 0 72 72" version="1.1">
<g id="surface1">
<path style=" stroke:none;fill-rule:nonzero;fill:rgb(96.078431%,81.176471%,36.862745%);fill-opacity:1;" d="M 14.125 1.65625 L 14.125 8.902344 L 23.691406 18.46875 L 23.691406 11.222656 Z M 5.175781 3.667969 L 3.691406 5.109375 L 21.605469 23 C 22.007812 22.417969 22.425781 21.871094 22.855469 21.347656 Z M 1.699219 14.082031 L 11.265625 23.648438 L 18.53125 23.648438 L 8.957031 14.082031 Z M 36 17.453125 C 32.53125 17.480469 28.777344 18.925781 25.40625 22.332031 C 20.511719 27.277344 17.5 40.222656 22.859375 44.753906 C 21.796875 39.742188 22.015625 33.835938 26.566406 27.953125 L 26.570312 27.960938 C 26.65625 27.839844 26.742188 27.726562 26.828125 27.613281 C 27.078125 27.300781 27.347656 26.988281 27.621094 26.679688 C 27.710938 26.582031 27.800781 26.484375 27.894531 26.386719 L 27.886719 26.378906 C 28.066406 26.179688 28.253906 25.980469 28.445312 25.785156 C 34.597656 19.410156 45.3125 25.273438 41.089844 35.0625 L 41.132812 35.0625 C 40.726562 36.003906 40.183594 36.976562 39.488281 37.980469 L 29.738281 28.234375 C 29.277344 28.707031 28.851562 29.222656 28.449219 29.835938 L 38.339844 39.714844 C 37.085938 41.84375 36.375 44.035156 36.117188 46.148438 L 36.082031 46.148438 C 35.765625 48.71875 36.128906 51.164062 36.984375 53.261719 C 37.5625 54.730469 38.375 56.027344 39.367188 57.074219 L 39.386719 57.035156 C 40.230469 57.917969 41.195312 58.632812 42.242188 59.125 C 51.523438 63.5 60.34375 66.804688 69.835938 69.886719 L 69.8125 69.824219 L 69.890625 69.855469 L 68.847656 67.300781 C 64.445312 55.816406 60.058594 44.796875 56.695312 33.089844 L 56.695312 33.09375 C 56.730469 39.25 55.421875 44.179688 53.34375 48.113281 L 57.582031 52.390625 C 58.089844 51.632812 58.542969 50.828125 58.9375 49.984375 L 65.089844 65.054688 L 49.90625 58.855469 C 50.789062 58.441406 51.621094 57.976562 52.398438 57.46875 L 48.285156 53.355469 C 44.917969 54.257812 41.214844 51.652344 40.867188 47.320312 C 40.867188 47.304688 40.867188 47.285156 40.863281 47.269531 C 40.855469 47.152344 40.851562 47.035156 40.847656 46.914062 C 40.847656 46.886719 40.84375 46.855469 40.84375 46.828125 C 40.839844 46.683594 40.839844 46.542969 40.84375 46.398438 C 40.882812 45.179688 41.050781 43.980469 41.386719 42.753906 L 53.621094 54.972656 L 54.515625 55.871094 C 55.027344 55.425781 55.511719 54.953125 55.960938 54.457031 L 42.128906 40.625 C 42.832031 38.964844 43.851562 37.203125 45.28125 35.226562 C 47.988281 31.476562 48.3125 27.71875 47.117188 24.632812 C 47.085938 24.554688 47.054688 24.476562 47.023438 24.398438 L 47.023438 24.394531 C 45.464844 20.582031 41.597656 17.835938 37.066406 17.488281 C 36.714844 17.460938 36.359375 17.449219 36 17.449219 Z M 36 17.453125 "/>
</g>
</svg>
