<?xml version="1.0" encoding="UTF-8"?>
<svg xmlns="http://www.w3.org/2000/svg" xmlns:xlink="http://www.w3.org/1999/xlink" width="72px" height="72px" viewBox="0 0 72 72" version="1.1">
<g id="surface1">
<path style=" stroke:none;fill-rule:nonzero;fill:rgb(96.078431%,81.176471%,36.862745%);fill-opacity:1;" d="M 52.53125 2.589844 C 50.335938 2.566406 48.609375 3.238281 47.953125 4.664062 C 44.75 11.636719 41.097656 16.917969 36.832031 21.15625 C 37.257812 21.296875 37.679688 21.476562 38.085938 21.6875 C 39.914062 22.628906 41.640625 24.1875 43.054688 26.023438 C 44.464844 27.859375 45.5625 29.976562 45.976562 32.140625 C 46.082031 32.691406 46.136719 33.25 46.136719 33.808594 C 51.617188 30.382812 58.097656 28.011719 65.949219 26.589844 C 68.046875 26.210938 69.273438 22.566406 68.957031 18.34375 L 64.015625 18.203125 L 68.3125 14.710938 C 67.730469 12.671875 66.765625 10.667969 65.335938 8.988281 C 63.152344 6.410156 60.214844 4.574219 57.363281 3.546875 L 53.710938 5.738281 L 54.105469 2.714844 C 53.5625 2.636719 53.035156 2.59375 52.53125 2.589844 Z M 34.726562 23.421875 C 34.578125 23.429688 34.4375 23.453125 34.304688 23.488281 C 32.621094 24.929688 30.84375 26.246094 28.96875 27.464844 C 29.085938 27.511719 29.203125 27.558594 29.320312 27.609375 C 31.304688 28.480469 33.179688 30.023438 34.730469 31.917969 C 36.609375 34.210938 38.050781 37.113281 38.332031 40.039062 C 39.785156 38.582031 41.320312 37.234375 42.953125 36 C 43.527344 35.078125 43.644531 33.964844 43.390625 32.632812 C 43.085938 31.023438 42.175781 29.199219 40.964844 27.625 C 39.753906 26.050781 38.242188 24.722656 36.878906 24.019531 C 36.027344 23.582031 35.308594 23.394531 34.726562 23.421875 Z M 26.019531 29.507812 C 25.824219 29.515625 25.640625 29.546875 25.460938 29.589844 C 20.257812 32.507812 14.339844 34.929688 7.558594 37.464844 C 7.640625 37.46875 7.71875 37.476562 7.800781 37.484375 C 9.296875 37.648438 10.765625 38.191406 12.183594 39.015625 L 17.480469 36.703125 L 15.257812 41.304688 C 16.101562 42.066406 16.917969 42.917969 17.695312 43.835938 C 20.617188 47.273438 23.035156 51.691406 24.320312 56.222656 C 24.320312 56.226562 24.320312 56.226562 24.320312 56.226562 C 24.738281 57.707031 25.039062 59.167969 25.207031 60.585938 C 28.160156 53.777344 31.449219 48.035156 35.378906 43.289062 C 36.40625 40.269531 35.074219 36.484375 32.699219 33.582031 C 31.371094 31.960938 29.75 30.667969 28.265625 30.019531 C 27.429688 29.652344 26.679688 29.484375 26.019531 29.507812 Z M 45.9375 37.222656 C 44.90625 37.933594 43.902344 38.699219 42.921875 39.515625 C 48.429688 40.816406 51.492188 44.539062 54.265625 48.257812 C 55.734375 50.230469 57.160156 52.210938 58.921875 53.976562 C 62.324219 55.265625 64.992188 54.875 67.910156 51.878906 C 54.949219 47.972656 54.394531 38.855469 45.9375 37.222656 Z M 6.832031 40.066406 C 5.304688 40.097656 4.265625 40.875 3.550781 42.398438 C 2.734375 44.140625 2.550781 46.964844 3.613281 50.421875 C 4.421875 53.058594 5.933594 55.726562 7.65625 57.683594 C 9.375 59.636719 11.296875 60.789062 12.628906 60.832031 L 12.632812 60.832031 C 13.15625 60.851562 13.554688 60.738281 13.875 60.445312 L 13.847656 60.421875 L 14.140625 60.125 C 14.253906 59.960938 14.355469 59.769531 14.449219 59.535156 C 14.84375 58.566406 14.910156 56.929688 14.191406 54.894531 C 13.222656 52.164062 11.5 50.40625 9.496094 50.003906 L 6.265625 49.363281 L 9.054688 47.605469 L 14.460938 44.203125 C 12.121094 41.839844 9.605469 40.324219 7.519531 40.09375 C 7.28125 40.070312 7.050781 40.058594 6.832031 40.066406 Z M 40.054688 40.824219 L 36.605469 44.394531 C 50.730469 46.90625 44.40625 64.222656 59.007812 69.171875 L 55.523438 61.113281 C 60.132812 63.386719 65 64.296875 69.265625 62.804688 C 50.175781 56.90625 55.722656 44.949219 40.054688 40.824219 Z M 16.222656 46.199219 L 12.574219 48.5 C 14.425781 49.695312 15.835938 51.671875 16.667969 54.015625 C 17.03125 55.035156 17.25 56.015625 17.335938 56.941406 L 20.632812 53.652344 C 19.496094 50.953125 17.957031 48.371094 16.226562 46.199219 Z M 21.621094 56.378906 L 15.707031 62.285156 L 15.683594 62.261719 C 15.085938 62.816406 14.355469 63.214844 13.546875 63.378906 C 16.820312 65.46875 19.828125 66.097656 21.539062 64.722656 C 22.136719 64.242188 22.527344 63.546875 22.730469 62.695312 C 22.671875 60.914062 22.363281 58.953125 21.792969 56.945312 C 21.738281 56.753906 21.679688 56.566406 21.621094 56.378906 Z M 21.621094 56.378906 "/>
</g>
</svg>
